<?xml version="1.0" standalone="no"?>
<!DOCTYPE svg PUBLIC "-//W3C//DTD SVG 20010904//EN"
 "http://www.w3.org/TR/2001/REC-SVG-20010904/DTD/svg10.dtd">
<svg version="1.0" xmlns="http://www.w3.org/2000/svg"
 width="700.000000pt" height="700.000000pt" viewBox="0 0 700.000000 700.000000"
 preserveAspectRatio="xMidYMid meet">
<metadata>
Created by potrace 1.11, written by Peter Selinger 2001-2013
</metadata>
<g transform="translate(0.000000,700.000000) scale(0.100000,-0.100000)"
fill="#000000" stroke="none">
<path d="M3308 6515 c-2 -2 -45 -6 -95 -9 -51 -4 -103 -9 -115 -11 -13 -2 -59
-9 -103 -15 -44 -7 -89 -14 -100 -16 -11 -2 -33 -7 -50 -9 -67 -12 -306 -76
-395 -105 -849 -285 -1540 -886 -1941 -1690 -73 -146 -132 -289 -175 -422 -15
-45 -27 -85 -27 -88 0 -3 -8 -29 -18 -58 -44 -129 -96 -413 -116 -633 -15
-167 -9 -482 13 -684 10 -91 45 -285 68 -375 3 -8 9 -35 15 -60 52 -228 201
-589 342 -832 201 -347 478 -668 797 -927 152 -123 414 -295 425 -280 2 2 68
117 147 254 79 138 152 264 163 282 l18 32 -62 38 c-67 42 -196 132 -245 172
-17 14 -51 42 -75 61 -47 37 -227 215 -295 290 -120 134 -285 381 -378 567
-104 209 -187 461 -230 697 -35 189 -38 218 -41 456 -3 216 6 332 41 535 10
56 55 229 85 322 250 781 874 1420 1654 1693 95 33 319 93 395 106 25 4 47 8
50 9 3 1 34 5 70 9 36 5 74 11 85 13 11 3 121 7 245 8 380 5 685 -48 1010
-177 362 -143 638 -325 915 -603 298 -298 501 -617 632 -995 115 -330 152
-564 148 -915 -4 -238 -7 -276 -35 -435 -43 -237 -97 -414 -190 -626 -25 -57
-23 -53 -85 -169 -218 -411 -571 -785 -962 -1019 -26 -16 -49 -30 -51 -32 -6
-4 40 -86 289 -516 l39 -67 95 60 c85 53 262 175 275 189 3 3 37 31 75 62 155
126 312 280 437 429 67 79 220 284 238 319 7 14 16 27 19 30 20 17 142 233
207 370 108 223 225 575 259 778 3 17 7 47 10 65 3 17 10 57 15 87 26 151 34
279 34 505 0 188 -5 283 -19 395 -3 19 -7 53 -10 75 -3 22 -7 51 -10 65 -3 14
-8 39 -10 55 -132 752 -544 1462 -1135 1957 -378 317 -818 547 -1285 673 -104
28 -315 71 -395 80 -30 4 -66 8 -80 10 -94 14 -171 18 -362 20 -120 1 -219 1
-220 0z"/>
<path d="M3437 5184 c-1 -1 -42 -4 -91 -8 -237 -17 -489 -85 -716 -194 -121
-58 -202 -107 -330 -201 -198 -145 -398 -368 -525 -586 -96 -165 -187 -390
-220 -545 -2 -8 -11 -46 -20 -85 -9 -38 -18 -95 -22 -125 -3 -30 -7 -68 -9
-85 -6 -48 -5 -305 1 -365 3 -30 11 -82 17 -115 5 -33 11 -69 13 -80 1 -11 10
-51 20 -90 102 -412 325 -771 650 -1050 63 -53 220 -167 262 -189 36 -18 30
-24 85 74 79 140 71 125 192 334 47 82 86 150 86 151 0 1 -30 22 -67 47 -371
249 -595 660 -596 1093 0 281 70 519 220 747 182 278 458 477 773 558 168 43
286 52 483 36 76 -7 90 -9 197 -37 456 -116 823 -481 948 -941 55 -200 60
-422 16 -631 -70 -333 -298 -658 -592 -841 l-43 -27 40 -72 c67 -121 269 -471
284 -491 13 -19 17 -17 93 34 473 317 773 760 879 1300 29 151 35 215 36 379
0 177 -14 298 -55 471 -65 269 -187 523 -362 750 -99 129 -259 292 -344 350
-19 13 -37 27 -40 30 -30 33 -236 159 -339 207 -191 89 -410 154 -601 179 -74
10 -316 23 -323 18z"/>
<path d="M3351 3828 c-235 -58 -409 -217 -486 -443 -21 -63 -25 -90 -29 -192
-10 -252 136 -494 368 -607 187 -92 381 -97 565 -15 112 50 198 120 266 214
91 128 124 222 129 375 7 202 -78 394 -232 525 -68 59 -194 125 -277 145 -81
20 -220 19 -304 -2z"/>
</g>
</svg>
